# xmcd CD database file
#
# Track frame offsets:
#	150
#	15657
#	29425
#	43985
#	57567
#	73002
#	86990
#	100950
#	115397
#	129880
#	145012
#	158207
#	173447
#	188950
#	203435
#	218787
#	233515
#	248910
#	264107
#	276432
#	289312
#	304647
#	319700
#
# Disc length: 4462 seconds
#
# Revision: 0
# Processed by: cddbd v1.5.1PL0 Copyright (c) Steve Scherf et al.
# Submitted via: CDex 1.51
#
DISCID=4c116c17
DTITLE=Louis Armstrong - The Essential Recordings 1925-1940 - Disc Two - West End Blues
DYEAR=1995
DGENRE=Jazz
TTITLE0=The Last Time [Ewing, Martin] [1927]
TTITLE1=Struttin' With Some Barbecue [L. Hardin] [1927]
TTITLE2=Once In A While [N. Butler] [1927]
TTITLE3=Hotter Than That [L. Hardin] [1927]
TTITLE4=Savoy Blues [E. Ory] [1927]
TTITLE5=Fireworks [S. Williams] [1928]
TTITLE6=Skip The Gutter [S. Williams] [1928]
TTITLE7=A Monday Date [E. Hines] [1928]
TTITLE8=West End Blues [J. Oliver] [1928]
TTITLE9=Sugar Foot Strut [B. Pierce, H. Myers, C. Schwab] [1928]
TTITLE10=Two Deuces [L. Hardin] [1928]
TTITLE11=Squeeze Me [C. Williams, T. Waller] [1928]
TTITLE12=Chicago Breakdown [J. Morton] [1927]
TTITLE13=Symphonic Raps [B. Steven, I. Abrams] [1928]
TTITLE14=Knee Drops [L. Hardin] [1928]
TTITLE15=Basin Street Blues [S. Williams] [1928]
TTITLE16=No One Else But You [D. Redman] [1928]
TTITLE17=Save It, Pretty Mama [D. Redman, J. Davis, P. Denmicher] [1928]
TTITLE18=Weather Bird [J. Oliver] [1928]
TTITLE19=Muggles [L. Armstrong] [1928]
TTITLE20=Heah Me Talkin' To You [L. Armstrong, D. Redman] [1928]
TTITLE21=St. James Infirmary [J. Primrose] [1928]
TTITLE22=Tight Like This [Curl] [1928]
EXTD=YEAR: 1995
EXTT0=
EXTT1=
EXTT2=
EXTT3=
EXTT4=
EXTT5=
EXTT6=
EXTT7=
EXTT8=
EXTT9=
EXTT10=
EXTT11=
EXTT12=
EXTT13=
EXTT14=
EXTT15=
EXTT16=
EXTT17=
EXTT18=
EXTT19=
EXTT20=
EXTT21=
EXTT22=
PLAYORDER=
